<svg width="60" height="60" viewBox="0 0 60 60" fill="none" xmlns="http://www.w3.org/2000/svg">
<g filter="url(#filter0_d_104_11)">
<rect x="10" y="10" width="40" height="40" rx="15" fill="#4971FF"/>
</g>
<path d="M33 20.1016C33 17.8363 31.6569 16 30 16C28.3431 16 27 17.8363 27 20.1016V39.8984C27 42.1637 28.3431 44 30 44C31.6569 44 33 42.1637 33 39.8984V20.1016Z" fill="white"/>
<path d="M39.8636 32.8949C42.12 32.8951 43.9492 31.5521 43.9492 29.8953C43.9492 28.2384 42.12 26.8951 39.8636 26.8949L20.1438 26.8931C17.8873 26.8929 16.0582 28.2359 16.0582 29.8928C16.0582 31.5496 17.8873 32.8929 20.1438 32.8931L39.8636 32.8949Z" fill="white"/>
<defs>
<filter id="filter0_d_104_11" x="0" y="0" width="60" height="60" filterUnits="userSpaceOnUse" color-interpolation-filters="sRGB">
<feFlood flood-opacity="0" result="BackgroundImageFix"/>
<feColorMatrix in="SourceAlpha" type="matrix" values="0 0 0 0 0 0 0 0 0 0 0 0 0 0 0 0 0 0 127 0" result="hardAlpha"/>
<feOffset/>
<feGaussianBlur stdDeviation="5"/>
<feComposite in2="hardAlpha" operator="out"/>
<feColorMatrix type="matrix" values="0 0 0 0 0.16435 0 0 0 0 0.106875 0 0 0 0 0.2375 0 0 0 0.4 0"/>
<feBlend mode="normal" in2="BackgroundImageFix" result="effect1_dropShadow_104_11"/>
<feBlend mode="normal" in="SourceGraphic" in2="effect1_dropShadow_104_11" result="shape"/>
</filter>
</defs>
</svg>
