<svg width="321" height="120" viewBox="0 0 321 120" fill="none" xmlns="http://www.w3.org/2000/svg">
<path d="M39.216 93.152C35.4613 93.152 32.56 92.128 30.512 90.08C28.464 87.9467 27.44 84.9173 27.44 80.992V45.92L32.304 58.848L2.864 16.48C1.41333 14.432 0.773334 12.1707 0.944 9.696C1.2 7.136 2.224 5.00266 4.016 3.296C5.89333 1.504 8.53867 0.607994 11.952 0.607994C14.3413 0.607994 16.5173 1.20533 18.48 2.39999C20.4427 3.50933 22.2773 5.42933 23.984 8.16L41.904 34.528H37.296L55.216 8.032C57.008 5.30133 58.8427 3.38133 60.72 2.272C62.5973 1.16266 64.816 0.607994 67.376 0.607994C70.6187 0.607994 73.136 1.41866 74.928 3.03999C76.72 4.66133 77.6587 6.70933 77.744 9.184C77.9147 11.6587 77.1467 14.176 75.44 16.736L46.256 58.848L50.992 45.92V80.992C50.992 89.0987 47.0667 93.152 39.216 93.152ZM107.778 93.408C100.781 93.408 94.6793 92.0853 89.474 89.44C84.2687 86.7947 80.2153 82.9973 77.314 78.048C74.4127 73.0987 72.962 67.2533 72.962 60.512C72.962 55.392 73.7727 50.8267 75.394 46.816C77.0153 42.72 79.362 39.264 82.434 36.448C85.506 33.5467 89.1753 31.3707 93.442 29.92C97.7087 28.384 102.487 27.616 107.778 27.616C114.775 27.616 120.877 28.9387 126.082 31.584C131.287 34.2293 135.298 38.0267 138.114 42.976C141.015 47.84 142.466 53.6853 142.466 60.512C142.466 65.5467 141.655 70.112 140.034 74.208C138.413 78.304 136.066 81.8027 132.994 84.704C130.007 87.52 126.338 89.696 121.986 91.232C117.719 92.6827 112.983 93.408 107.778 93.408ZM107.778 76.64C110.082 76.64 112.13 76.0853 113.922 74.976C115.714 73.7813 117.079 72.032 118.018 69.728C119.042 67.3387 119.554 64.2667 119.554 60.512C119.554 54.7947 118.445 50.6987 116.226 48.224C114.007 45.664 111.191 44.384 107.778 44.384C105.474 44.384 103.426 44.9387 101.634 46.048C99.842 47.1573 98.434 48.9067 97.41 51.296C96.386 53.6 95.874 56.672 95.874 60.512C95.874 66.144 96.9833 70.24 99.202 72.8C101.421 75.36 104.279 76.64 107.778 76.64ZM176.458 93.408C170.997 93.408 166.517 92.4267 163.018 90.464C159.519 88.416 156.874 85.3867 155.082 81.376C153.375 77.3653 152.522 72.288 152.522 66.144V39.264C152.522 35.5093 153.503 32.6933 155.466 30.816C157.429 28.8533 160.245 27.872 163.914 27.872C167.583 27.872 170.399 28.8533 172.362 30.816C174.325 32.6933 175.306 35.5093 175.306 39.264V66.784C175.306 69.856 175.946 72.16 177.226 73.696C178.506 75.232 180.511 76 183.242 76C186.314 76 188.831 74.8907 190.794 72.672C192.757 70.4533 193.738 67.5093 193.738 63.84V39.264C193.738 35.5093 194.719 32.6933 196.682 30.816C198.645 28.8533 201.461 27.872 205.13 27.872C208.799 27.872 211.615 28.8533 213.578 30.816C215.541 32.6933 216.522 35.5093 216.522 39.264V81.632C216.522 89.312 212.853 93.152 205.514 93.152C201.93 93.152 199.157 92.1707 197.194 90.208C195.231 88.2453 194.25 85.3867 194.25 81.632V74.208L196.298 80.48C194.421 84.6613 191.775 87.8613 188.362 90.08C185.034 92.2987 181.066 93.408 176.458 93.408ZM313.493 103.392C315.029 105.952 315.584 108.256 315.157 110.304C314.73 112.437 313.664 114.229 311.957 115.68C310.336 117.131 308.373 118.069 306.069 118.496C303.85 118.923 301.632 118.709 299.413 117.856C297.194 117.003 295.36 115.381 293.909 112.992L284.437 97.76C283.498 96.224 282.261 95.1147 280.725 94.432C279.189 93.7493 277.184 93.408 274.709 93.408L292.245 86.88C296.085 86.88 299.328 87.6053 301.973 89.056C304.618 90.4213 306.88 92.6827 308.757 95.84L313.493 103.392ZM274.837 93.408C265.706 93.408 257.685 91.488 250.773 87.648C243.861 83.7227 238.485 78.2613 234.645 71.264C230.89 64.2667 229.013 56.1173 229.013 46.816C229.013 39.8187 230.08 33.4613 232.213 27.744C234.432 22.0267 237.546 17.12 241.557 13.024C245.653 8.928 250.517 5.81333 256.149 3.67999C261.781 1.46133 268.01 0.351997 274.837 0.351997C283.968 0.351997 291.946 2.272 298.773 6.112C305.685 9.952 311.061 15.3707 314.901 22.368C318.741 29.28 320.661 37.4293 320.661 46.816C320.661 53.8133 319.552 60.1707 317.333 65.888C315.2 71.6053 312.085 76.5547 307.989 80.736C303.978 84.832 299.157 87.9893 293.525 90.208C287.893 92.3413 281.664 93.408 274.837 93.408ZM274.837 73.696C279.36 73.696 283.2 72.6293 286.357 70.496C289.514 68.3627 291.946 65.2907 293.653 61.28C295.36 57.2693 296.213 52.448 296.213 46.816C296.213 38.368 294.336 31.7973 290.581 27.104C286.826 22.4107 281.578 20.064 274.837 20.064C270.4 20.064 266.56 21.1307 263.317 23.264C260.16 25.312 257.728 28.3413 256.021 32.352C254.314 36.2773 253.461 41.0987 253.461 46.816C253.461 55.264 255.338 61.8773 259.093 66.656C262.848 71.3493 268.096 73.696 274.837 73.696Z" fill="#5A7EFF"/>
</svg>
